# xmcd
#
# Track frame offsets:
#	150
#	12080
#	22966
#	34416
#	43155
#	55029
#	63637
#	75301
#	88853
#	98975
#	112274
#	120711
#	136554
#
# Disc length: 1953 seconds
#
# Revision: 1
# Processed by: cddbd v1.5.2PL0 Copyright (c) Steve Scherf et al.
# Submitted via: audiograbber 1.83.01
#
DISCID=a6079f0d
DTITLE=Blanket - Blanket
DYEAR=2010
DGENRE=Bluegrass
TTITLE0=Z lasky jen dym
TTITLE1=Proc musim na spatnym brehu stat
TTITLE2=Hadka s andelem
TTITLE3=Poutnik po vlnach
TTITLE4=Jestli jsou andele
TTITLE5=Muj hlas
TTITLE6=Theme Time
TTITLE7=Roll Jordan
TTITLE8=Touhu mam
TTITLE9=Kentucky waltz
TTITLE10=Znas tenhle pribeh
TTITLE11=Bleecker Street Rag
TTITLE12=At se zemekoule kouli
EXTD=
EXTT0=
EXTT1=
EXTT2=
EXTT3=
EXTT4=
EXTT5=
EXTT6=
EXTT7=
EXTT8=
EXTT9=
EXTT10=
EXTT11=
EXTT12=
PLAYORDER=
